<svg id="Grupo_11" data-name="Grupo 11" xmlns="http://www.w3.org/2000/svg" width="175.109" height="24.692" viewBox="0 0 175.109 24.692">
  <path id="Trazado_38" data-name="Trazado 38" d="M46.383,38.825a1.8,1.8,0,0,0-.6-1.44,2.559,2.559,0,0,0-1.717-.52H41.135v3.845h2.951q2.3,0,2.3-1.886m-5.249-4.862h2.709Q46,33.963,46,32.126t-2.2-1.839H41.135Zm8.574,2.805a4.106,4.106,0,0,1,.908,2.636,4.248,4.248,0,0,1-1.464,3.435,6.341,6.341,0,0,1-4.2,1.233H37v-17.1h7.763A6.344,6.344,0,0,1,48.8,28.11a3.9,3.9,0,0,1,1.426,3.241,4,4,0,0,1-.822,2.576,3.786,3.786,0,0,1-2.152,1.342,4.28,4.28,0,0,1,2.454,1.5" transform="translate(-37 -25.631)" fill="#fff"/>
  <path id="Trazado_39" data-name="Trazado 39" d="M158.583,57.964a3.977,3.977,0,0,0,0,4.79,3.008,3.008,0,0,0,4.238-.024,3.832,3.832,0,0,0,0-4.754,3.022,3.022,0,0,0-4.238-.012m3.436-3.759a4.177,4.177,0,0,1,1.629,1.892v-2.42h4.071V67.041h-4.071V64.622a4.183,4.183,0,0,1-1.629,1.892,4.844,4.844,0,0,1-2.634.694,5.417,5.417,0,0,1-2.958-.826A5.653,5.653,0,0,1,154.368,64a9.192,9.192,0,0,1,0-7.293,5.658,5.658,0,0,1,2.059-2.371,5.409,5.409,0,0,1,2.958-.827,4.836,4.836,0,0,1,2.634.695" transform="translate(-138.671 -48.767)" fill="#fff"/>
  <path id="Trazado_40" data-name="Trazado 40" d="M297.865,55.23a6.153,6.153,0,0,1,1.354,4.215V67.2h-4.1v-7.28a2.947,2.947,0,0,0-.706-2.1,2.456,2.456,0,0,0-1.88-.754,2.559,2.559,0,0,0-1.976.79,3.2,3.2,0,0,0-.73,2.251V67.2h-4.1V53.841h4.1v2.442a4.411,4.411,0,0,1,1.713-1.891,5.018,5.018,0,0,1,2.67-.695,4.626,4.626,0,0,1,3.652,1.533" transform="translate(-253.861 -48.93)" fill="#fff"/>
  <path id="Trazado_41" data-name="Trazado 41" d="M411.619,57.964a3.98,3.98,0,0,0,0,4.79,3.009,3.009,0,0,0,4.239-.024,3.831,3.831,0,0,0,0-4.754,3.023,3.023,0,0,0-4.239-.012m3.437-3.759a4.183,4.183,0,0,1,1.629,1.892v-2.42h4.071V67.041h-4.071V64.622a4.189,4.189,0,0,1-1.629,1.892,4.846,4.846,0,0,1-2.635.694,5.413,5.413,0,0,1-2.957-.826A5.654,5.654,0,0,1,407.4,64a9.194,9.194,0,0,1,0-7.293,5.658,5.658,0,0,1,2.059-2.371,5.405,5.405,0,0,1,2.957-.827,4.837,4.837,0,0,1,2.635.695" transform="translate(-359.282 -48.767)" fill="#fff"/>
  <path id="Trazado_42" data-name="Trazado 42" d="M550.9,55.23a6.149,6.149,0,0,1,1.354,4.215V67.2h-4.1v-7.28a2.946,2.946,0,0,0-.706-2.1,2.456,2.456,0,0,0-1.881-.754,2.557,2.557,0,0,0-1.975.79,3.2,3.2,0,0,0-.731,2.251V67.2h-4.094V53.841h4.094v2.442a4.411,4.411,0,0,1,1.713-1.891,5.021,5.021,0,0,1,2.671-.695A4.623,4.623,0,0,1,550.9,55.23" transform="translate(-474.476 -48.93)" fill="#fff"/>
  <path id="Trazado_43" data-name="Trazado 43" d="M664.659,57.964a3.981,3.981,0,0,0,0,4.79,3.009,3.009,0,0,0,4.239-.024,3.831,3.831,0,0,0,0-4.754,3.023,3.023,0,0,0-4.239-.012M668.1,54.2a4.179,4.179,0,0,1,1.63,1.892v-2.42H673.8V67.041h-4.071V64.622a4.185,4.185,0,0,1-1.63,1.892,4.843,4.843,0,0,1-2.634.694,5.411,5.411,0,0,1-2.957-.826A5.654,5.654,0,0,1,660.445,64a9.194,9.194,0,0,1,0-7.293,5.659,5.659,0,0,1,2.059-2.371,5.4,5.4,0,0,1,2.957-.827,4.834,4.834,0,0,1,2.634.695" transform="translate(-579.897 -48.767)" fill="#fff"/>
  <path id="Trazado_44" data-name="Trazado 44" d="M804.537,41.02a6.354,6.354,0,0,0,1.742-4.771,6.416,6.416,0,0,0-1.73-4.783,6.9,6.9,0,0,0-5.046-1.706H796.5V42.715H799.5a6.932,6.932,0,0,0,5.035-1.695m2.933-.322a7.032,7.032,0,0,1-3.017,2.935,10.234,10.234,0,0,1-4.783,1.038h-5.345V27.851h5.345a10.438,10.438,0,0,1,4.783,1.014,6.891,6.891,0,0,1,3.017,2.91,9.262,9.262,0,0,1,1.026,4.474A9.206,9.206,0,0,1,807.47,40.7" transform="translate(-697.278 -26.396)" fill="#fff"/>
  <path id="Trazado_45" data-name="Trazado 45" d="M932.806,59.285a3.485,3.485,0,0,0-1.5-1.455,4.57,4.57,0,0,0-2.075-.477,4.3,4.3,0,0,0-3.007,1.109,4.47,4.47,0,0,0-1.311,3.256h8.374a4.459,4.459,0,0,0-.478-2.434m2.578,3.483H924.91a4.588,4.588,0,0,0,1.277,3.364,4.165,4.165,0,0,0,2.947,1.121,4.257,4.257,0,0,0,2.635-.8,3.3,3.3,0,0,0,1.3-2.135h2.314a5.468,5.468,0,0,1-3.2,4.1,7.056,7.056,0,0,1-2.957.6,6.754,6.754,0,0,1-3.341-.811,5.737,5.737,0,0,1-2.278-2.326,8.165,8.165,0,0,1,0-7.145,5.73,5.73,0,0,1,2.278-2.339,6.756,6.756,0,0,1,3.341-.812,6.594,6.594,0,0,1,3.327.812,5.584,5.584,0,0,1,2.172,2.171,6.113,6.113,0,0,1,.751,3.006,6.519,6.519,0,0,1-.1,1.193" transform="translate(-809.278 -50.578)" fill="#fff"/>
  <path id="Trazado_46" data-name="Trazado 46" d="M1047.923,56.746a4.875,4.875,0,0,1,1.634,3.113h-2.075a3.013,3.013,0,0,0-.967-1.921,3.147,3.147,0,0,0-2.207-.751,2.72,2.72,0,0,0-1.825.561,1.888,1.888,0,0,0-.656,1.515,1.56,1.56,0,0,0,.442,1.157,2.823,2.823,0,0,0,1.1.668,18.217,18.217,0,0,0,1.8.49,17.74,17.74,0,0,1,2.349.68,3.683,3.683,0,0,1,1.527,1.109,3.123,3.123,0,0,1,.633,2.052,3.225,3.225,0,0,1-1.2,2.6,4.858,4.858,0,0,1-3.208,1,6.143,6.143,0,0,1-3.818-1.121,4.473,4.473,0,0,1-1.742-3.125h2.1a2.729,2.729,0,0,0,1.038,1.932,3.742,3.742,0,0,0,2.421.74,2.514,2.514,0,0,0,1.753-.573,1.932,1.932,0,0,0,.633-1.5,1.647,1.647,0,0,0-.453-1.216,2.991,2.991,0,0,0-1.121-.692,16.459,16.459,0,0,0-1.838-.5,17.8,17.8,0,0,1-2.326-.668,3.56,3.56,0,0,1-1.479-1.062,2.975,2.975,0,0,1-.608-1.968,3.3,3.3,0,0,1,1.216-2.661,5.024,5.024,0,0,1,3.317-1.014,5.288,5.288,0,0,1,3.566,1.157" transform="translate(-911.213 -50.58)" fill="#fff"/>
  <path id="Trazado_47" data-name="Trazado 47" d="M1139.816,34.772h-2.171v-13.1h2.171Zm-2.146-17.905a1.745,1.745,0,0,1,2.146,0,1.354,1.354,0,0,1,0,1.933,1.741,1.741,0,0,1-2.146,0,1.354,1.354,0,0,1,0-1.933" transform="translate(-996.272 -16.497)" fill="#fff"/>
  <path id="Trazado_48" data-name="Trazado 48" d="M1182.759,58.8a5.745,5.745,0,0,0,0,7.038,4.2,4.2,0,0,0,3.209,1.277,4.45,4.45,0,0,0,2.3-.6,4.15,4.15,0,0,0,1.587-1.681,5.323,5.323,0,0,0,.572-2.518,5.4,5.4,0,0,0-.572-2.529,4.058,4.058,0,0,0-1.587-1.682,4.525,4.525,0,0,0-2.3-.585,4.207,4.207,0,0,0-3.209,1.276m5.822-2.254a4.976,4.976,0,0,1,1.848,2.552V55.758h2.172V69.07a6.646,6.646,0,0,1-.765,3.221,5.477,5.477,0,0,1-2.146,2.194,6.4,6.4,0,0,1-3.221.788A6.919,6.919,0,0,1,1182.151,74a5.627,5.627,0,0,1-2.123-3.448h2.147a3.716,3.716,0,0,0,1.443,2.064,4.621,4.621,0,0,0,2.731.751,4.006,4.006,0,0,0,2.922-1.133,4.222,4.222,0,0,0,1.157-3.161V65.515a4.976,4.976,0,0,1-1.848,2.553,5.389,5.389,0,0,1-3.233.954,5.938,5.938,0,0,1-3.1-.811,5.614,5.614,0,0,1-2.136-2.326,7.743,7.743,0,0,1-.776-3.567,7.822,7.822,0,0,1,.776-3.578,5.594,5.594,0,0,1,2.136-2.338,5.938,5.938,0,0,1,3.1-.812,5.383,5.383,0,0,1,3.233.955" transform="translate(-1032.952 -50.58)" fill="#fff"/>
  <path id="Trazado_49" data-name="Trazado 49" d="M1320.44,56.683a5.884,5.884,0,0,1,1.407,4.235v7.611h-2.171v-7.42a4.184,4.184,0,0,0-1-3.006,3.581,3.581,0,0,0-2.719-1.05,3.723,3.723,0,0,0-2.864,1.157,4.794,4.794,0,0,0-1.073,3.376v6.942h-2.171v-13.1h2.171v3.1a4.47,4.47,0,0,1,1.778-2.457,5.156,5.156,0,0,1,2.947-.859,4.892,4.892,0,0,1,3.7,1.468" transform="translate(-1146.739 -50.254)" fill="#fff"/>
</svg>
