<svg xmlns="http://www.w3.org/2000/svg" width="61.023" height="60.969" viewBox="0 0 61.023 60.969">
  <g id="Grupo_33" data-name="Grupo 33" transform="translate(-953 -399.643)">
    <g id="Rectángulo_182" data-name="Rectángulo 182" transform="translate(980.013 399.643) rotate(40)" fill="#fff" stroke="#4e47b7" stroke-linecap="round" stroke-linejoin="round" stroke-width="3">
      <rect width="23.006" height="6.66" rx="3.33" stroke="none"/>
      <rect x="1.5" y="1.5" width="20.006" height="3.66" rx="1.83" fill="none"/>
    </g>
    <g id="Rectángulo_186" data-name="Rectángulo 186" transform="matrix(0.788, 0.616, -0.616, 0.788, 962.113, 419.466)" fill="#fff" stroke="#4e47b7" stroke-linecap="round" stroke-linejoin="round" stroke-width="3">
      <rect width="23.006" height="6.66" rx="3.33" stroke="none"/>
      <rect x="1.5" y="1.5" width="20.006" height="3.66" rx="1.83" fill="none"/>
    </g>
    <g id="Rectángulo_184" data-name="Rectángulo 184" transform="translate(983.013 417.018) rotate(38)" fill="#fff" stroke="#4e47b7" stroke-linecap="round" stroke-linejoin="round" stroke-width="3">
      <rect width="39.352" height="9.687" rx="4.843" stroke="none"/>
      <rect x="1.5" y="1.5" width="36.352" height="6.687" rx="3.343" fill="none"/>
    </g>
    <g id="Rectángulo_185" data-name="Rectángulo 185" transform="translate(965.366 423.191) rotate(-50)" fill="#fff" stroke="#4e47b7" stroke-linecap="round" stroke-linejoin="round" stroke-width="3">
      <rect width="21.795" height="15.135" stroke="none"/>
      <rect x="1.5" y="1.5" width="18.795" height="12.135" fill="none"/>
    </g>
    <g id="Rectángulo_187" data-name="Rectángulo 187" transform="translate(958 448.612)" fill="#fff" stroke="#4e47b7" stroke-linecap="round" stroke-linejoin="round" stroke-width="3">
      <rect width="24" height="6" stroke="none"/>
      <rect x="1.5" y="1.5" width="21" height="3" fill="none"/>
    </g>
    <g id="Rectángulo_188" data-name="Rectángulo 188" transform="translate(953 454.612)" fill="#fff" stroke="#4e47b7" stroke-linecap="round" stroke-linejoin="round" stroke-width="3">
      <rect width="34" height="6" stroke="none"/>
      <rect x="1.5" y="1.5" width="31" height="3" fill="none"/>
    </g>
  </g>
</svg>
