<svg xmlns="http://www.w3.org/2000/svg" width="64.109" height="75.29" viewBox="0 0 64.109 75.29">
  <g id="Grupo_29" data-name="Grupo 29" transform="translate(-3041.282 -3711.468)">
    <path id="Trazado_82" data-name="Trazado 82" d="M3070.25,3713.639s24.183-4.031,33.252,8.061" transform="translate(-5.956)" fill="none" stroke="#4e47b7" stroke-linecap="round" stroke-width="3"/>
    <path id="Trazado_83" data-name="Trazado 83" d="M3061.923,3726.657a37.973,37.973,0,0,1,27.382-2.162c14.772,4.684,18.375,19.1,18.375,19.1" transform="translate(-4.109 -2.188)" fill="none" stroke="#4e47b7" stroke-linecap="round" stroke-linejoin="round" stroke-width="3"/>
    <path id="Trazado_84" data-name="Trazado 84" d="M3048.033,3743.352s19.456-13.691,37.11-6.485,18.015,28.1,8.287,42.875" transform="translate(-1.027 -4.831)" fill="none" stroke="#4e47b7" stroke-linecap="round" stroke-linejoin="round" stroke-width="3"/>
    <path id="Trazado_85" data-name="Trazado 85" d="M3043.4,3759.3s21.618-25.073,39.272-11.022-2.883,38.912-8.647,42.875" transform="translate(0 -6.88)" fill="none" stroke="#4e47b7" stroke-linecap="round" stroke-linejoin="round" stroke-width="3"/>
    <path id="Trazado_86" data-name="Trazado 86" d="M3043.4,3769.717s23.419-22.542,33.507-14.255,2.162,23.059-13.691,38.191" transform="translate(0 -9.016)" fill="none" stroke="#4e47b7" stroke-linecap="round" stroke-linejoin="round" stroke-width="3"/>
    <path id="Trazado_87" data-name="Trazado 87" d="M3045.718,3780.355s17.294-21.617,25.941-15.853-13.691,25.941-13.691,25.941" transform="translate(-0.514 -11.211)" fill="none" stroke="#4e47b7" stroke-linecap="round" stroke-linejoin="round" stroke-width="3"/>
    <path id="Trazado_88" data-name="Trazado 88" d="M3048.033,3788.453s16.934-9.728,18.375-14.412" transform="translate(-1.027 -13.544)" fill="none" stroke="#4e47b7" stroke-linecap="round" stroke-width="3"/>
  </g>
</svg>
