<svg id="Componente_2_1" data-name="Componente 2 – 1" xmlns="http://www.w3.org/2000/svg" width="57.007" height="54.734" viewBox="0 0 57.007 54.734">
  <g id="Grupo_24" data-name="Grupo 24" transform="translate(9.47 10.494)">
    <path id="Trazado_69" data-name="Trazado 69" d="M4917.339,1476.827a1.992,1.992,0,0,0,2.058,1.985,2.391,2.391,0,0,0,2.282-1.985,1.572,1.572,0,0,1,1.6-1.4c1.425.043,8.033,0,8.033,0s1.685,0,1.857,1.4a2.454,2.454,0,0,0,2.592,1.985,1.955,1.955,0,0,0,2.03-1.985" transform="translate(-4914.812 -1473.135)" fill="none" stroke="#4e47b7" stroke-linecap="round" stroke-linejoin="round" stroke-width="2"/>
    <path id="Trazado_70" data-name="Trazado 70" d="M4932.676,1471.99v22.244" transform="translate(-4919.923 -1471.99)" fill="none" stroke="#4e47b7" stroke-linecap="round" stroke-width="2"/>
    <line id="Línea_6" data-name="Línea 6" x1="11.998" transform="translate(7.303 22.337)" fill="none" stroke="#4e47b7" stroke-linecap="round" stroke-width="2"/>
    <path id="Trazado_71" data-name="Trazado 71" d="M4915.426,1489.885l3.284-8.911s2.658,6.47,3.587,8.911" transform="translate(-4914.173 -1474.319)" fill="none" stroke="#4e47b7" stroke-linecap="round" stroke-linejoin="round" stroke-width="2"/>
    <path id="Trazado_74" data-name="Trazado 74" d="M4915.684,1488.849l3.145-9.112s2.43,6.672,3.358,9.112" transform="translate(-4898.261 -1473.24)" fill="none" stroke="#4e47b7" stroke-linecap="round" stroke-linejoin="round" stroke-width="2"/>
    <path id="Trazado_73" data-name="Trazado 73" d="M4913.547,1495.511l2.214.019,7.288-.019s-.049,4.033-4.622,4.033C4914.15,1499.63,4913.59,1497.153,4913.547,1495.511Z" transform="translate(-4913.547 -1479.833)" fill="none" stroke="#4e47b7" stroke-linejoin="round" stroke-width="2"/>
    <path id="Trazado_75" data-name="Trazado 75" d="M4913.547,1495.511l2.214.019,7.288-.019s-.049,4.033-4.622,4.033C4914.15,1499.63,4913.59,1497.153,4913.547,1495.511Z" transform="translate(-4897.549 -1479.833)" fill="none" stroke="#4e47b7" stroke-linejoin="round" stroke-width="2"/>
  </g>
  <g id="Elipse_127" data-name="Elipse 127" fill="none" stroke="#4e47b7" stroke-width="3">
    <circle cx="22" cy="22" r="22" stroke="none"/>
    <circle cx="22" cy="22" r="20.5" fill="none"/>
  </g>
  <path id="Trazado_76" data-name="Trazado 76" d="M0,0,16.9,16.163" transform="translate(37.989 36.451)" fill="none" stroke="#4e47b7" stroke-linecap="round" stroke-width="3"/>
</svg>
