<svg xmlns="http://www.w3.org/2000/svg" width="111.693" height="107.996" viewBox="0 0 111.693 107.996"><defs><style>.a,.b,.c,.d,.e,.g{fill:none;}.a,.b,.c,.d,.e{stroke:#fff;}.a,.b,.e{stroke-linecap:round;}.a,.c{stroke-linejoin:round;}.a,.b,.c{stroke-width:3px;}.d{stroke-width:6px;}.e{stroke-width:8px;}.f{stroke:none;}</style></defs><g transform="translate(0 -0.172)"><g transform="translate(18.295 21.14)"><path class="a" d="M4917.339,1478.134s.142,3.976,3.976,3.834a4.62,4.62,0,0,0,4.41-3.834,3.036,3.036,0,0,1,3.087-2.709c2.754.083,15.521,0,15.521,0s3.255-.006,3.588,2.709,3,3.868,5.007,3.834a3.776,3.776,0,0,0,3.922-3.834" transform="translate(-4912.457 -1471.003)"/><path class="b" d="M4932.676,1471.99v42.974" transform="translate(-4908.039 -1471.99)"/><line class="b" x1="23.18" transform="translate(14.108 43.154)"/><path class="a" d="M4915.426,1498.189l6.345-17.215s5.135,12.5,6.929,17.215" transform="translate(-4913.005 -1468.117)"/><path class="a" d="M4915.684,1497.341l6.075-17.6s4.694,12.89,6.489,17.6" transform="translate(-4882.024 -1467.186)"/><path class="c" d="M4913.547,1495.511l4.276.037,14.081-.037s-.094,7.791-8.929,7.791C4914.713,1503.469,4913.63,1498.682,4913.547,1495.511Z" transform="translate(-4913.547 -1465.221)"/><path class="c" d="M4913.547,1495.511l4.276.037,14.081-.037s-.094,7.791-8.929,7.791C4914.713,1503.469,4913.63,1498.682,4913.547,1495.511Z" transform="translate(-4882.64 -1465.221)"/></g><g class="d" transform="translate(0 0.172)"><circle class="f" cx="42.5" cy="42.5" r="42.5"/><circle class="g" cx="42.5" cy="42.5" r="39.5"/></g><path class="e" d="M0,0,32.644,31.225" transform="translate(73.393 71.287)"/></g></svg>