<svg id="svg" xmlns="http://www.w3.org/2000/svg" xmlns:xlink="http://www.w3.org/1999/xlink" width="400" height="97.64918625678119" viewBox="0, 0, 400,97.64918625678119"><g id="svgg"><path id="path0" d="M290.325 0.254 C 287.640 1.105,285.783 3.278,285.354 6.071 C 285.221 6.936,285.177 20.291,285.212 49.277 L 285.262 91.230 285.684 92.275 C 286.476 94.237,288.128 95.874,289.964 96.518 C 290.816 96.817,293.342 96.835,333.816 96.835 L 376.763 96.835 377.802 96.416 C 379.014 95.927,380.600 94.550,381.271 93.406 C 382.347 91.570,382.287 94.397,382.235 47.999 L 382.188 5.515 381.782 4.512 C 380.971 2.509,379.457 1.039,377.495 0.350 C 376.232 -0.095,291.717 -0.188,290.325 0.254 M54.812 13.396 C 50.210 14.300,47.134 19.242,48.347 23.779 C 50.566 32.071,62.481 32.067,64.641 23.773 C 66.197 17.800,60.894 12.202,54.812 13.396 M309.584 13.945 C 313.207 15.200,315.574 19.059,315.003 22.780 C 313.985 29.398,306.069 32.144,301.252 27.549 C 294.957 21.544,301.357 11.095,309.584 13.945 M0.000 48.463 L 0.000 82.640 21.429 82.640 L 42.857 82.640 42.857 75.678 L 42.857 68.716 29.024 68.716 L 15.190 68.716 15.190 41.501 L 15.190 14.286 7.595 14.286 L 0.000 14.286 0.000 48.463 M123.508 48.463 L 123.508 82.640 130.830 82.640 L 138.153 82.640 138.199 71.315 L 138.246 59.990 145.796 71.315 L 153.346 82.640 162.488 82.640 C 169.753 82.640,171.603 82.594,171.498 82.414 C 171.425 82.290,167.311 76.718,162.355 70.033 C 157.400 63.347,153.345 57.790,153.345 57.683 C 153.345 57.576,157.536 52.732,162.658 46.918 C 167.780 41.104,171.971 36.307,171.971 36.257 C 171.971 36.207,167.963 36.169,163.065 36.172 L 154.159 36.178 146.203 45.400 L 138.246 54.622 138.200 34.454 L 138.154 14.286 130.831 14.286 L 123.508 14.286 123.508 48.463 M256.600 27.532 L 256.601 40.778 255.014 39.233 C 250.283 34.625,240.946 33.353,233.774 36.339 C 219.500 42.281,215.663 65.950,227.117 77.404 C 235.481 85.769,250.093 85.780,256.898 77.426 L 257.685 76.459 257.685 79.549 L 257.685 82.640 264.376 82.640 L 271.067 82.640 271.067 48.463 L 271.067 14.286 263.834 14.286 L 256.600 14.286 256.600 27.532 M191.953 34.896 C 175.260 36.383,165.166 50.784,169.706 66.637 C 174.710 84.112,199.141 89.724,212.523 76.472 C 213.492 75.512,214.286 74.651,214.286 74.558 C 214.286 74.374,204.430 67.089,204.181 67.089 C 204.097 67.089,203.796 67.423,203.513 67.831 C 198.245 75.433,185.774 73.532,183.464 64.775 L 183.215 63.834 199.836 63.834 L 216.456 63.834 216.452 60.172 C 216.436 43.152,207.124 33.544,191.953 34.896 M95.389 35.382 C 91.887 36.130,88.527 38.321,86.320 41.295 L 85.533 42.354 85.533 39.260 L 85.533 36.166 78.571 36.166 L 71.609 36.166 71.609 59.403 L 71.609 82.640 78.834 82.640 L 86.059 82.640 86.124 69.213 C 86.196 54.396,86.179 54.630,87.367 52.051 C 89.809 46.755,98.300 46.350,100.706 51.416 C 101.861 53.847,101.862 53.854,101.940 68.942 L 102.012 82.640 109.243 82.640 L 116.474 82.640 116.409 66.953 C 116.331 48.235,116.235 47.259,114.021 42.767 C 111.096 36.831,103.216 33.708,95.389 35.382 M354.299 35.531 C 362.204 36.722,366.020 41.041,367.385 50.344 C 367.633 52.032,367.693 54.744,367.762 67.405 L 367.844 82.459 360.685 82.459 L 353.526 82.459 353.526 69.362 C 353.526 53.699,353.441 52.768,351.779 50.321 C 350.491 48.424,349.037 47.825,345.750 47.840 C 340.940 47.862,338.614 49.946,337.586 55.154 C 337.461 55.788,337.360 60.917,337.307 69.304 L 337.224 82.459 330.185 82.459 L 323.146 82.459 323.146 59.403 L 323.146 36.347 329.928 36.347 L 336.709 36.347 336.709 39.512 C 336.709 43.059,336.794 43.257,337.703 41.817 C 340.828 36.863,347.179 34.458,354.299 35.531 M49.186 59.403 L 49.186 82.640 56.510 82.640 L 63.834 82.640 63.834 59.403 L 63.834 36.166 56.510 36.166 L 49.186 36.166 49.186 59.403 M313.924 59.403 L 313.924 82.459 306.872 82.459 L 299.819 82.459 299.819 59.403 L 299.819 36.347 306.872 36.347 L 313.924 36.347 313.924 59.403 M195.048 45.495 C 198.410 45.899,201.905 49.880,201.979 53.391 L 201.989 53.888 192.582 53.888 L 183.176 53.888 183.285 53.391 C 183.944 50.405,185.238 48.395,187.451 46.923 C 189.654 45.457,191.632 45.085,195.048 45.495 M248.944 47.827 C 259.818 49.883,260.966 66.596,250.482 70.215 C 243.370 72.670,236.409 68.822,235.177 61.754 C 233.597 52.697,240.070 46.149,248.944 47.827 M392.085 84.276 C 386.789 85.020,384.659 91.743,388.501 95.585 C 392.759 99.843,399.862 96.893,399.862 90.868 C 399.862 86.610,396.393 83.670,392.085 84.276 M395.750 85.759 C 399.415 87.649,400.022 92.390,396.952 95.150 C 393.293 98.439,387.517 95.768,387.524 90.791 C 387.530 86.673,392.100 83.878,395.750 85.759 M390.778 90.958 L 390.778 94.575 391.410 94.575 L 392.043 94.575 392.043 93.038 L 392.043 91.501 392.541 91.501 C 392.968 91.501,393.173 91.716,394.002 93.038 C 394.915 94.494,394.999 94.575,395.603 94.575 C 396.359 94.575,396.345 94.494,395.334 92.989 C 394.951 92.419,394.580 91.854,394.509 91.732 C 394.425 91.590,394.601 91.419,395.005 91.250 C 395.772 90.930,396.081 90.390,396.066 89.400 C 396.042 87.770,395.319 87.342,392.592 87.342 L 390.778 87.342 390.778 90.958 M394.606 88.726 C 395.452 89.491,394.732 90.403,393.170 90.545 L 392.043 90.647 392.043 89.537 L 392.043 88.427 393.159 88.427 C 393.944 88.427,394.373 88.516,394.606 88.726 " stroke="none" fill="#4E47B7" fill-rule="evenodd"></path></g></svg>