<svg xmlns="http://www.w3.org/2000/svg" width="62.475" height="48.471" viewBox="0 0 62.475 48.471">
  <g id="Grupo_31" data-name="Grupo 31" transform="translate(-825.07 -562.749)">
    <path id="Trazado_92" data-name="Trazado 92" d="M2308.769,1570,2270,1589.385l19.385,12.543,39.661-20.773Z" transform="translate(-1443 -992.208)" fill="#fff" stroke="#4e47b7" stroke-linecap="round" stroke-linejoin="round" stroke-width="3"/>
    <path id="Trazado_90" data-name="Trazado 90" d="M2308.769,1569,2270,1589.385l19.385,12.543,39.661-20.773Z" transform="translate(-1443.43 -996.909)" fill="#fff" stroke="#4e47b7" stroke-linecap="round" stroke-linejoin="round" stroke-width="3"/>
    <path id="Trazado_94" data-name="Trazado 94" d="M2308.769,1570,2270,1589.385l19.385,12.543,39.661-20.773Z" transform="translate(-1443 -1001.33)" fill="#fff" stroke="#4e47b7" stroke-linecap="round" stroke-linejoin="round" stroke-width="3"/>
    <path id="Trazado_95" data-name="Trazado 95" d="M2308.769,1570,2270,1589.385l19.385,12.543,39.661-20.773Z" transform="translate(-1443 -1005.751)" fill="#fff" stroke="#4e47b7" stroke-linecap="round" stroke-linejoin="round" stroke-width="3"/>
    <g id="Elipse_133" data-name="Elipse 133" transform="translate(845.805 578.547) rotate(-13)" fill="#fff" stroke="#4e47b7" stroke-linecap="round" stroke-linejoin="round" stroke-width="3">
      <ellipse cx="7.412" cy="3.421" rx="7.412" ry="3.421" stroke="none"/>
      <ellipse cx="7.412" cy="3.421" rx="5.912" ry="1.921" fill="none"/>
    </g>
    <path id="Trazado_96" data-name="Trazado 96" d="M2420.157,1570.134l18.881,11.636v15.807l10.1-5.489V1576.72l-19.319-11.416Z" transform="translate(-1576.534 -994.61)" fill="#fff" stroke="#4e47b7" stroke-linecap="round" stroke-linejoin="round" stroke-width="3"/>
  </g>
</svg>
