<svg xmlns="http://www.w3.org/2000/svg" width="41.454" height="62.272" viewBox="0 0 41.454 62.272">
  <g id="Grupo_32" data-name="Grupo 32" transform="translate(-834.338 -553.949)">
    <g id="Rectángulo_181" data-name="Rectángulo 181" transform="matrix(0.866, 0.5, -0.5, 0.866, 863.954, 553.949)" fill="#fff" stroke="#4e47b7" stroke-linecap="round" stroke-linejoin="round" stroke-width="3">
      <rect width="13.669" height="46.577" rx="6.835" stroke="none"/>
      <rect x="1.5" y="1.5" width="10.669" height="43.577" rx="5.335" fill="none"/>
    </g>
    <line id="Línea_16" data-name="Línea 16" x2="12.657" y2="5.063" transform="matrix(0.995, 0.105, -0.105, 0.995, 859.902, 560.672)" fill="none" stroke="#4e47b7" stroke-linecap="round" stroke-width="3"/>
    <path id="Trazado_97" data-name="Trazado 97" d="M6,0A15.873,15.873,0,0,1,0,3c0-.273,1.363,9.537,1.09,14.987-.273-.545,5.558-5,11.581-9.547-.937-2.677-.681-3.26-.954-5.44" transform="matrix(0.995, 0.105, -0.105, 0.995, 837.867, 595.362)" fill="none" stroke="#4e47b7" stroke-linecap="round" stroke-linejoin="round" stroke-width="3"/>
    <line id="Línea_17" data-name="Línea 17" x1="3.544" y2="7.088" transform="matrix(0.995, 0.105, -0.105, 0.995, 842.842, 597.058)" fill="none" stroke="#4e47b7" stroke-linecap="round" stroke-width="3"/>
    <g id="Elipse_134" data-name="Elipse 134" transform="matrix(0.995, 0.105, -0.105, 0.995, 844.8, 594.774)" fill="#fff" stroke="#4e47b7" stroke-linecap="round" stroke-linejoin="round" stroke-width="3">
      <ellipse cx="2.202" cy="2.202" rx="2.202" ry="2.202" stroke="none"/>
      <ellipse cx="2.202" cy="2.202" rx="0.702" ry="0.702" fill="none"/>
    </g>
    <g id="Elipse_135" data-name="Elipse 135" transform="matrix(0.995, 0.105, -0.105, 0.995, 835.941, 611.859)" fill="#fff" stroke="#4e47b7" stroke-linecap="round" stroke-linejoin="round" stroke-width="3">
      <ellipse cx="1.266" cy="1.266" rx="1.266" ry="1.266" stroke="none"/>
      <ellipse cx="1.266" cy="1.266" rx="0.234" ry="0.234" fill="none"/>
    </g>
  </g>
</svg>
