<svg xmlns="http://www.w3.org/2000/svg" width="48.198" height="72.064" viewBox="0 0 48.198 72.064">
  <g id="Grupo_28" data-name="Grupo 28" transform="translate(-848.508 -579.038)">
    <g id="Rectángulo_173" data-name="Rectángulo 173" transform="matrix(0.883, 0.469, -0.469, 0.883, 867.597, 607.67)" fill="#fff" stroke="#4e47b7" stroke-linecap="round" stroke-linejoin="round" stroke-width="3">
      <rect width="13.496" height="36.15" rx="6.748" stroke="none"/>
      <rect x="1.5" y="1.5" width="10.496" height="33.15" rx="5.248" fill="none"/>
    </g>
    <g id="Rectángulo_174" data-name="Rectángulo 174" transform="matrix(0.883, 0.469, -0.469, 0.883, 886.642, 579.038)" fill="#fff" stroke="#4e47b7" stroke-linecap="round" stroke-linejoin="round" stroke-width="3">
      <rect width="7.23" height="6.266" rx="3" stroke="none"/>
      <rect x="1.5" y="1.5" width="4.23" height="3.266" rx="1.5" fill="none"/>
    </g>
    <g id="Rectángulo_175" data-name="Rectángulo 175" transform="matrix(0.883, 0.469, -0.469, 0.883, 880.377, 579.528)" fill="#fff" stroke="#4e47b7" stroke-linecap="round" stroke-linejoin="round" stroke-width="3">
      <rect width="17.352" height="43.862" rx="8.676" stroke="none"/>
      <rect x="1.5" y="1.5" width="14.352" height="40.862" rx="7.176" fill="none"/>
    </g>
    <path id="Trazado_80" data-name="Trazado 80" d="M0,.015,16.933,0" transform="matrix(0.883, 0.469, -0.469, 0.883, 873.719, 592.621)" fill="none" stroke="#4e47b7" stroke-linecap="round" stroke-width="3"/>
    <path id="Trazado_81" data-name="Trazado 81" d="M0,.02H2.2s1.111-.247.987.987,0,28.756,0,28.756" transform="matrix(0.883, 0.469, -0.469, 0.883, 891.846, 594.597)" fill="none" stroke="#4e47b7" stroke-linecap="round" stroke-linejoin="round" stroke-width="3"/>
    <g id="Polígono_3" data-name="Polígono 3" transform="matrix(-0.875, -0.485, 0.485, -0.875, 858.129, 651.102)" fill="#fff">
      <path d="M 7.433889389038086 8.000002861022949 L 3.566109418869019 8.000002861022949 C 3.037489414215088 8.000002861022949 2.780059576034546 7.642752647399902 2.69391942024231 7.489162445068359 C 2.607779502868652 7.335562705993652 2.437179565429688 6.929622650146484 2.71282958984375 6.478552341461182 L 4.646719455718994 3.31401252746582 C 4.910669326782227 2.882092475891113 5.331379413604736 2.83546257019043 5.499999523162842 2.83546257019043 C 5.668619632720947 2.83546257019043 6.089329719543457 2.882092475891113 6.353279590606689 3.31401252746582 L 8.287169456481934 6.478552341461182 C 8.562819480895996 6.929622650146484 8.392219543457031 7.335562705993652 8.306079864501953 7.489162445068359 C 8.219939231872559 7.642752647399902 7.962509632110596 8.000002861022949 7.433889389038086 8.000002861022949 Z" stroke="none"/>
      <path d="M 5.49998950958252 3.83546257019043 L 5.499999523162842 3.83546257019043 L 3.566109657287598 7.000002861022949 L 7.433889389038086 7.000002861022949 L 5.49998950958252 3.83546257019043 M 5.499999523162842 1.835457801818848 C 6.15831470489502 1.835457801818848 6.816629409790039 2.154492378234863 7.206559181213379 2.792562484741211 L 9.140449523925781 5.95710277557373 C 9.954879760742188 7.289802551269531 8.995749473571777 9.000002861022949 7.433889389038086 9.000002861022949 L 3.566109657287598 9.000002861022949 C 2.004249572753906 9.000002861022949 1.045119285583496 7.289802551269531 1.859549522399902 5.95710277557373 L 3.793439388275146 2.792562484741211 C 4.183369636535645 2.154492378234863 4.841684341430664 1.835457801818848 5.499999523162842 1.835457801818848 Z" stroke="none" fill="#4e47b7"/>
    </g>
  </g>
</svg>
