<svg xmlns="http://www.w3.org/2000/svg" width="16.284" height="16.284" viewBox="0 0 16.284 16.284">
  <path id="bxs-phone" d="M18.984,15.941l-3.716-3.378A.915.915,0,0,0,14,12.6l-2.187,2.25a5.248,5.248,0,0,1-2.675-1.517,5.222,5.222,0,0,1-1.517-2.675L9.866,8.471A.914.914,0,0,0,9.9,7.2L6.527,3.485a.914.914,0,0,0-1.271-.08l-1.984,1.7a.914.914,0,0,0-.265.593A13.8,13.8,0,0,0,6.93,15.541a13.841,13.841,0,0,0,9.512,3.929c.185,0,.3-.005.328-.007a.906.906,0,0,0,.592-.266l1.7-1.984A.912.912,0,0,0,18.984,15.941Z" transform="translate(-3 -3.185)" fill="#4e47b7"/>
</svg>
